<svg id="snowflake" width="640" height="640" viewBox="-500 -500 1000 1000"><g fill="red"><polyline fill="none" stroke="gray" points=""></polyline><g></g></g><g><circle cx="-210" cy="51.96152422706631" r="10"></circle><circle cx="-150" cy="-155.88457268119893" r="10"></circle><circle cx="60" cy="-207.84609690826525" r="10"></circle><circle cx="210" cy="-51.96152422706631" r="10"></circle><circle cx="150" cy="155.88457268119893" r="10"></circle><circle cx="-60" cy="207.84609690826525" r="10"></circle><circle cx="-220" cy="34.64101615137754" r="10"></circle><circle cx="-140" cy="-173.2050807568877" r="10"></circle><circle cx="80" cy="-207.84609690826525" r="10"></circle><circle cx="220" cy="-34.64101615137754" r="10"></circle><circle cx="140" cy="173.2050807568877" r="10"></circle><circle cx="-80" cy="207.84609690826525" r="10"></circle><circle cx="-200" cy="69.28203230275508" r="10"></circle><circle cx="-160" cy="-138.56406460551017" r="10"></circle><circle cx="40" cy="-207.84609690826525" r="10"></circle><circle cx="200" cy="-69.28203230275508" r="10"></circle><circle cx="160" cy="138.56406460551017" r="10"></circle><circle cx="-40" cy="207.84609690826525" r="10"></circle><circle cx="-170" cy="155.88457268119893" r="10"></circle><circle cx="-220" cy="-69.28203230275508" r="10"></circle><circle cx="-50" cy="-225.16660498395402" r="10"></circle><circle cx="170" cy="-155.88457268119893" r="10"></circle><circle cx="220" cy="69.28203230275508" r="10"></circle><circle cx="50" cy="225.16660498395402" r="10"></circle><circle cx="-230" cy="-51.96152422706631" r="10"></circle><circle cx="-70" cy="-225.16660498395402" r="10"></circle><circle cx="160" cy="-173.2050807568877" r="10"></circle><circle cx="230" cy="51.96152422706631" r="10"></circle><circle cx="70" cy="225.16660498395402" r="10"></circle><circle cx="-160" cy="173.2050807568877" r="10"></circle><circle cx="-210" cy="17.32050807568877" r="10"></circle><circle cx="-120" cy="-173.2050807568877" r="10"></circle><circle cx="90" cy="-190.5255888325765" r="10"></circle><circle cx="210" cy="-17.32050807568877" r="10"></circle><circle cx="120" cy="173.2050807568877" r="10"></circle><circle cx="-90" cy="190.5255888325765" r="10"></circle><circle cx="-240" cy="-34.64101615137754" r="10"></circle><circle cx="-90" cy="-225.16660498395402" r="10"></circle><circle cx="150" cy="-190.5255888325765" r="10"></circle><circle cx="240" cy="34.64101615137754" r="10"></circle><circle cx="90" cy="225.16660498395402" r="10"></circle><circle cx="-150" cy="190.5255888325765" r="10"></circle><circle cx="-200" cy="34.64101615137754" r="10"></circle><circle cx="-130" cy="-155.88457268119893" r="10"></circle><circle cx="70" cy="-190.5255888325765" r="10"></circle><circle cx="200" cy="-34.64101615137754" r="10"></circle><circle cx="130" cy="155.88457268119893" r="10"></circle><circle cx="-70" cy="190.5255888325765" r="10"></circle><circle cx="-230" cy="-17.32050807568877" r="10"></circle><circle cx="-100" cy="-207.84609690826525" r="10"></circle><circle cx="130" cy="-190.5255888325765" r="10"></circle><circle cx="230" cy="17.32050807568877" r="10"></circle><circle cx="100" cy="207.84609690826525" r="10"></circle><circle cx="-130" cy="190.5255888325765" r="10"></circle><circle cx="-190" cy="51.96152422706631" r="10"></circle><circle cx="-140" cy="-138.56406460551017" r="10"></circle><circle cx="50" cy="-190.5255888325765" r="10"></circle><circle cx="190" cy="-51.96152422706631" r="10"></circle><circle cx="140" cy="138.56406460551017" r="10"></circle><circle cx="-50" cy="190.5255888325765" r="10"></circle><circle cx="-190" cy="51.96152422706631" r="10"></circle><circle cx="-140" cy="-138.56406460551017" r="10"></circle><circle cx="50" cy="-190.5255888325765" r="10"></circle><circle cx="190" cy="-51.96152422706631" r="10"></circle><circle cx="140" cy="138.56406460551017" r="10"></circle><circle cx="-50" cy="190.5255888325765" r="10"></circle><circle cx="-120" cy="69.28203230275508" r="10"></circle><circle cx="-120" cy="-69.28203230275508" r="10"></circle><circle cx="0" cy="-138.56406460551017" r="10"></circle><circle cx="120" cy="-69.28203230275508" r="10"></circle><circle cx="120" cy="69.28203230275508" r="10"></circle><circle cx="0" cy="138.56406460551017" r="10"></circle><circle cx="-200" cy="34.64101615137754" r="10"></circle><circle cx="-130" cy="-155.88457268119893" r="10"></circle><circle cx="70" cy="-190.5255888325765" r="10"></circle><circle cx="200" cy="-34.64101615137754" r="10"></circle><circle cx="130" cy="155.88457268119893" r="10"></circle><circle cx="-70" cy="190.5255888325765" r="10"></circle><circle cx="-200" cy="-34.64101615137754" r="10"></circle><circle cx="-70" cy="-190.5255888325765" r="10"></circle><circle cx="130" cy="-155.88457268119893" r="10"></circle><circle cx="200" cy="34.64101615137754" r="10"></circle><circle cx="70" cy="190.5255888325765" r="10"></circle><circle cx="-130" cy="155.88457268119893" r="10"></circle><circle cx="-210" cy="-17.32050807568877" r="10"></circle><circle cx="-90" cy="-190.5255888325765" r="10"></circle><circle cx="120" cy="-173.2050807568877" r="10"></circle><circle cx="210" cy="17.32050807568877" r="10"></circle><circle cx="90" cy="190.5255888325765" r="10"></circle><circle cx="-120" cy="173.2050807568877" r="10"></circle><circle cx="-180" cy="0" r="10"></circle><circle cx="-90" cy="-155.88457268119893" r="10"></circle><circle cx="90" cy="-155.88457268119893" r="10"></circle><circle cx="180" cy="0" r="10"></circle><circle cx="90" cy="155.88457268119893" r="10"></circle><circle cx="-90" cy="155.88457268119893" r="10"></circle><circle cx="-150" cy="51.96152422706631" r="10"></circle><circle cx="-120" cy="-103.92304845413263" r="10"></circle><circle cx="30" cy="-155.88457268119893" r="10"></circle><circle cx="150" cy="-51.96152422706631" r="10"></circle><circle cx="120" cy="103.92304845413263" r="10"></circle><circle cx="-30" cy="155.88457268119893" r="10"></circle><circle cx="-190" cy="-17.32050807568877" r="10"></circle><circle cx="-80" cy="-173.2050807568877" r="10"></circle><circle cx="110" cy="-155.88457268119893" r="10"></circle><circle cx="190" cy="17.32050807568877" r="10"></circle><circle cx="80" cy="173.2050807568877" r="10"></circle><circle cx="-110" cy="155.88457268119893" r="10"></circle><circle cx="-180" cy="34.64101615137754" r="10"></circle><circle cx="-120" cy="-138.56406460551017" r="10"></circle><circle cx="60" cy="-173.2050807568877" r="10"></circle><circle cx="180" cy="-34.64101615137754" r="10"></circle><circle cx="120" cy="138.56406460551017" r="10"></circle><circle cx="-60" cy="173.2050807568877" r="10"></circle><circle cx="-170" cy="-17.32050807568877" r="10"></circle><circle cx="-70" cy="-155.88457268119893" r="10"></circle><circle cx="100" cy="-138.56406460551017" r="10"></circle><circle cx="170" cy="17.32050807568877" r="10"></circle><circle cx="70" cy="155.88457268119893" r="10"></circle><circle cx="-100" cy="138.56406460551017" r="10"></circle><circle cx="-160" cy="0" r="10"></circle><circle cx="-80" cy="-138.56406460551017" r="10"></circle><circle cx="80" cy="-138.56406460551017" r="10"></circle><circle cx="160" cy="0" r="10"></circle><circle cx="80" cy="138.56406460551017" r="10"></circle><circle cx="-80" cy="138.56406460551017" r="10"></circle><circle cx="-60" cy="138.56406460551017" r="10"></circle><circle cx="-150" cy="17.32050807568877" r="10"></circle><circle cx="-90" cy="-121.2435565298214" r="10"></circle><circle cx="60" cy="-138.56406460551017" r="10"></circle><circle cx="150" cy="-17.32050807568877" r="10"></circle><circle cx="90" cy="121.2435565298214" r="10"></circle><circle cx="-160" cy="34.64101615137754" r="10"></circle><circle cx="-110" cy="-121.2435565298214" r="10"></circle><circle cx="50" cy="-155.88457268119893" r="10"></circle><circle cx="160" cy="-34.64101615137754" r="10"></circle><circle cx="110" cy="121.2435565298214" r="10"></circle><circle cx="-50" cy="155.88457268119893" r="10"></circle><circle cx="-110" cy="51.96152422706631" r="10"></circle><circle cx="-100" cy="-69.28203230275508" r="10"></circle><circle cx="10" cy="-121.2435565298214" r="10"></circle><circle cx="110" cy="-51.96152422706631" r="10"></circle><circle cx="100" cy="69.28203230275508" r="10"></circle><circle cx="-10" cy="121.2435565298214" r="10"></circle><circle cx="-120" cy="-34.64101615137754" r="10"></circle><circle cx="-30" cy="-121.2435565298214" r="10"></circle><circle cx="90" cy="-86.60254037844385" r="10"></circle><circle cx="120" cy="34.64101615137754" r="10"></circle><circle cx="30" cy="121.2435565298214" r="10"></circle><circle cx="-90" cy="86.60254037844385" r="10"></circle><circle cx="-100" cy="-34.64101615137754" r="10"></circle><circle cx="-20" cy="-103.92304845413263" r="10"></circle><circle cx="80" cy="-69.28203230275508" r="10"></circle><circle cx="100" cy="34.64101615137754" r="10"></circle><circle cx="20" cy="103.92304845413263" r="10"></circle><circle cx="-80" cy="69.28203230275508" r="10"></circle><circle cx="-40" cy="103.92304845413263" r="10"></circle><circle cx="-110" cy="17.32050807568877" r="10"></circle><circle cx="-70" cy="-86.60254037844385" r="10"></circle><circle cx="40" cy="-103.92304845413263" r="10"></circle><circle cx="110" cy="-17.32050807568877" r="10"></circle><circle cx="70" cy="86.60254037844385" r="10"></circle><circle cx="-140" cy="34.64101615137754" r="10"></circle><circle cx="-100" cy="-103.92304845413263" r="10"></circle><circle cx="40" cy="-138.56406460551017" r="10"></circle><circle cx="140" cy="-34.64101615137754" r="10"></circle><circle cx="100" cy="103.92304845413263" r="10"></circle><circle cx="-40" cy="138.56406460551017" r="10"></circle><circle cx="-90" cy="-51.96152422706631" r="10"></circle><circle cx="0" cy="-103.92304845413263" r="10"></circle><circle cx="90" cy="-51.96152422706631" r="10"></circle><circle cx="90" cy="51.96152422706631" r="10"></circle><circle cx="0" cy="103.92304845413263" r="10"></circle><circle cx="-90" cy="51.96152422706631" r="10"></circle><circle cx="-130" cy="17.32050807568877" r="10"></circle><circle cx="-80" cy="-103.92304845413263" r="10"></circle><circle cx="50" cy="-121.2435565298214" r="10"></circle><circle cx="130" cy="-17.32050807568877" r="10"></circle><circle cx="80" cy="103.92304845413263" r="10"></circle><circle cx="-50" cy="121.2435565298214" r="10"></circle><circle cx="-120" cy="34.64101615137754" r="10"></circle><circle cx="-90" cy="-86.60254037844385" r="10"></circle><circle cx="30" cy="-121.2435565298214" r="10"></circle><circle cx="120" cy="-34.64101615137754" r="10"></circle><circle cx="90" cy="86.60254037844385" r="10"></circle><circle cx="-30" cy="121.2435565298214" r="10"></circle><circle cx="-70" cy="-51.96152422706631" r="10"></circle><circle cx="10" cy="-86.60254037844385" r="10"></circle><circle cx="80" cy="-34.64101615137754" r="10"></circle><circle cx="70" cy="51.96152422706631" r="10"></circle><circle cx="-10" cy="86.60254037844385" r="10"></circle><circle cx="-80" cy="34.64101615137754" r="10"></circle><circle cx="-110" cy="17.32050807568877" r="10"></circle><circle cx="-70" cy="-86.60254037844385" r="10"></circle><circle cx="40" cy="-103.92304845413263" r="10"></circle><circle cx="110" cy="-17.32050807568877" r="10"></circle><circle cx="70" cy="86.60254037844385" r="10"></circle><circle cx="-40" cy="103.92304845413263" r="10"></circle><circle cx="-110" cy="17.32050807568877" r="10"></circle><circle cx="-70" cy="-86.60254037844385" r="10"></circle><circle cx="40" cy="-103.92304845413263" r="10"></circle><circle cx="110" cy="-17.32050807568877" r="10"></circle><circle cx="70" cy="86.60254037844385" r="10"></circle><circle cx="-40" cy="103.92304845413263" r="10"></circle><circle cx="-90" cy="17.32050807568877" r="10"></circle><circle cx="-60" cy="-69.28203230275508" r="10"></circle><circle cx="30" cy="-86.60254037844385" r="10"></circle><circle cx="90" cy="-17.32050807568877" r="10"></circle><circle cx="60" cy="69.28203230275508" r="10"></circle><circle cx="-30" cy="86.60254037844385" r="10"></circle><circle cx="-80" cy="0" r="10"></circle><circle cx="-40" cy="-69.28203230275508" r="10"></circle><circle cx="40" cy="-69.28203230275508" r="10"></circle><circle cx="80" cy="0" r="10"></circle><circle cx="40" cy="69.28203230275508" r="10"></circle><circle cx="-40" cy="69.28203230275508" r="10"></circle><circle cx="-20" cy="-69.28203230275508" r="10"></circle><circle cx="50" cy="-51.96152422706631" r="10"></circle><circle cx="70" cy="17.32050807568877" r="10"></circle><circle cx="20" cy="69.28203230275508" r="10"></circle><circle cx="-50" cy="51.96152422706631" r="10"></circle><circle cx="-70" cy="-17.32050807568877" r="10"></circle><circle cx="-40" cy="-34.64101615137754" r="10"></circle><circle cx="10" cy="-51.96152422706631" r="10"></circle><circle cx="50" cy="-17.32050807568877" r="10"></circle><circle cx="40" cy="34.64101615137754" r="10"></circle><circle cx="-10" cy="51.96152422706631" r="10"></circle><circle cx="-50" cy="17.32050807568877" r="10"></circle><circle cx="-60" cy="0" r="10"></circle><circle cx="-30" cy="-51.96152422706631" r="10"></circle><circle cx="30" cy="-51.96152422706631" r="10"></circle><circle cx="60" cy="0" r="10"></circle><circle cx="30" cy="51.96152422706631" r="10"></circle><circle cx="-30" cy="51.96152422706631" r="10"></circle><circle cx="-40" cy="34.64101615137754" r="10"></circle><circle cx="-50" cy="-17.32050807568877" r="10"></circle><circle cx="-10" cy="-51.96152422706631" r="10"></circle><circle cx="40" cy="-34.64101615137754" r="10"></circle><circle cx="50" cy="17.32050807568877" r="10"></circle><circle cx="10" cy="51.96152422706631" r="10"></circle><circle cx="-30" cy="-17.32050807568877" r="10"></circle><circle cx="0" cy="-34.64101615137754" r="10"></circle><circle cx="30" cy="-17.32050807568877" r="10"></circle><circle cx="30" cy="17.32050807568877" r="10"></circle><circle cx="0" cy="34.64101615137754" r="10"></circle><circle cx="-30" cy="17.32050807568877" r="10"></circle><circle cx="0" cy="0" r="10"></circle><circle cx="20" cy="0" r="10"></circle><circle cx="10" cy="17.32050807568877" r="10"></circle><circle cx="-10" cy="17.32050807568877" r="10"></circle><circle cx="-20" cy="0" r="10"></circle><circle cx="-10" cy="-17.32050807568877" r="10"></circle><circle cx="10" cy="-17.32050807568877" r="10"></circle></g></svg>